PathFileType	4	(X/Y/Z)	/Users/itak/Documents/Research/Walk-IL/dataset/trc/00065_00006.trc
DataRate	CameraRate	NumFrames	NumMarkers	Units	OrigDataRate	OrigDataStartFrame	OrigNumFrames
100.000000	100.000000	4	53	mm	100.000000	555	741
Frame#	Time	RPSI			LPSI			L3			STRN			T10			C7			CLAV			RBAK			LBAK			LSHO			LUPA			LAEL			LAOL			LWTS			LWPS			LFRA			LIFD			LHPS			LHTS			RSHO			RUPA			RAEL			RAOL			RWTS			RWPS			RFRA			RIFD			RHTS			RHPS			RBHD			LFHD			RFHD			LBHD			LHIP			RHIP			RASI			LASI			LKNE			LTHI			LANK			LTIP			LTOE			LMT1			LMT5			LHEE			RKNE			RTHI			RANK			RTIP			RTOE			RMT1			RMT5			RHEE			
		X1	Y1	Z1	X2	Y2	Z2	X3	Y3	Z3	X4	Y4	Z4	X5	Y5	Z5	X6	Y6	Z6	X7	Y7	Z7	X8	Y8	Z8	X9	Y9	Z9	X10	Y10	Z10	X11	Y11	Z11	X12	Y12	Z12	X13	Y13	Z13	X14	Y14	Z14	X15	Y15	Z15	X16	Y16	Z16	X17	Y17	Z17	X18	Y18	Z18	X19	Y19	Z19	X20	Y20	Z20	X21	Y21	Z21	X22	Y22	Z22	X23	Y23	Z23	X24	Y24	Z24	X25	Y25	Z25	X26	Y26	Z26	X27	Y27	Z27	X28	Y28	Z28	X29	Y29	Z29	X30	Y30	Z30	X31	Y31	Z31	X32	Y32	Z32	X33	Y33	Z33	X34	Y34	Z34	X35	Y35	Z35	X36	Y36	Z36	X37	Y37	Z37	X38	Y38	Z38	X39	Y39	Z39	X40	Y40	Z40	X41	Y41	Z41	X42	Y42	Z42	X43	Y43	Z43	X44	Y44	Z44	X45	Y45	Z45	X46	Y46	Z46	X47	Y47	Z47	X48	Y48	Z48	X49	Y49	Z49	X50	Y50	Z50	X51	Y51	Z51	X52	Y52	Z52	X53	Y53	Z53	

556	5.55	-731.010986328125	1017.733459472656	583.288330078125	-578.8424072265625	1009.478820800781	500.5468444824219	-647.5094604492188	1072.451416015625	542.09375	-551.74853515625	1272.713012695312	778.6828002929688	-644.4019775390625	1206.419799804688	525.4027099609375	-616.8821411132812	1472.988403320312	579.1576538085938	-558.8580322265625	1387.06591796875	747.9443969726562	-710.0286865234375	1335.9375	545.9866943359375	-531.6746826171875	1434.824951171875	522.3071899414062	-428.2583923339844	1437.212036132812	594.8732299804688	-362.6294250488281	1312.434936523438	550.9180297851562	-331.0313415527344	1099.183715820312	556.8860473632812	-433.9245300292969	1081.31689453125	532.6754760742188	-343.4281311035156	864.0524291992188	673.7022705078125	-313.9340209960938	850.305419921875	596.1937255859375	-312.81396484375	991.0562744140625	574.6260986328125	-355.5561218261719	679.9681396484375	700.7626953125	-304.1964416503906	770.243408203125	631.1526489257812	-331.3818664550781	782.32421875	695.8624267578125	-760.7838134765625	1441.705444335938	697.0423583984375	-826.0652465820312	1376.867553710938	704.8077392578125	-894.5636596679688	1124.688354492188	679.2081909179688	-801.252685546875	1092.529663085938	664.03515625	-823.4390869140625	865.79541015625	798.7947998046875	-893.701171875	856.192138671875	747.552734375	-904.5657348632812	1042.23095703125	693.177001953125	-811.7870483398438	674.9575805664062	774.5745849609375	-821.1184692382812	758.924072265625	809.3687133789062	-887.8561401367188	763.6178588867188	770.5208740234375	-594.431640625	1649.309326171875	587.017822265625	-553.973388671875	1689.059936523438	795.3117065429688	-465.7559814453125	1686.348022460938	705.214111328125	-683.5364379882812	1645.357055664062	691.9166870117188	-455.5717468261719	945.0271606445312	561.6486206054688	-775.0291137695312	947.1610717773438	675.607421875	-709.7922973632812	966.722412109375	780.9186401367188	-459.579833984375	958.0159301757812	684.989501953125	-513.800537109375	504.6622924804688	755.8638916015625	-477.0048217773438	626.4141235351562	674.2603759765625	-606.0429077148438	43.80495452880859	717.5114135742188	-552.3943481445312	255.4632263183594	727.599609375	-581.1141357421875	47.35007476806641	922.1370239257812	-639.9036865234375	53.57124710083008	882.3118896484375	-549.7103271484375	42.41858673095703	814.473388671875	-691.230712890625	47.81194305419922	682.0568237304688	-741.6160888671875	511.2275695800781	821.6567993164062	-752.2001953125	783.0860595703125	779.5247802734375	-904.4462280273438	234.1982879638672	443.9808959960938	-784.6542358398438	420.9644775390625	746.123779296875	-833.5509643554688	82.82295227050781	568.0696411132812	-799.6500854492188	126.3218841552734	521.8091430664062	-900.9618530273438	142.3282012939453	523.2012329101562	-857.2734375	270.7649230957031	404.7544860839844	
557	5.56	-728.827392578125	1018.64013671875	593.04248046875	-578.3782958984375	1010.475769042969	507.5184326171875	-645.7811889648438	1073.263427734375	550.1869506835938	-546.6425170898438	1273.91455078125	784.8358764648438	-642.7474975585938	1207.238403320312	532.8759155273438	-614.2902221679688	1473.848266601562	585.99560546875	-554.1735229492188	1388.215209960938	754.0740356445312	-707.87841796875	1336.794311523438	554.3170166015625	-530.0060424804688	1435.640380859375	527.8980102539062	-425.5819702148438	1438.208740234375	599.136474609375	-360.4630126953125	1313.220581054688	554.909912109375	-328.5200500488281	1099.980102539062	562.2847900390625	-431.6073303222656	1081.8388671875	539.2543334960938	-339.8251037597656	866.1467895507812	681.8680419921875	-310.9477233886719	851.5675048828125	604.283935546875	-310.0365905761719	992.0352783203125	581.0517578125	-351.25927734375	682.371826171875	711.1583862304688	-300.7225341796875	771.9478759765625	640.1058959960938	-327.4059143066406	784.71630859375	704.870849609375	-756.65478515625	1442.885498046875	705.7367553710938	-821.9483642578125	1378.381469726562	714.2924194335938	-891.8561401367188	1126.665649414062	688.7296142578125	-798.6940307617188	1094.30859375	672.6076049804688	-819.87451171875	867.3179321289062	806.7743530273438	-890.522705078125	857.84033203125	756.3111572265625	-901.9050903320312	1044.127075195312	702.6069946289062	-808.2739868164062	676.5010986328125	781.5645751953125	-817.2124633789062	760.3419799804688	816.829833984375	-884.4607543945312	765.21826171875	778.76171875	-590.98876953125	1650.529663085938	593.4600830078125	-548.8112182617188	1690.019775390625	801.523193359375	-461.3291931152344	1687.376831054688	710.6644897460938	-679.2595825195312	1646.490478515625	699.1056518554688	-453.7117309570312	946.0135498046875	565.8853149414062	-771.1954345703125	948.2771606445312	686.393798828125	-703.7094116210938	968.2318725585938	790.34130859375	-455.1673583984375	959.0494995117188	689.4276733398438	-511.4187316894531	504.1747436523438	757.42529296875	-475.1874389648438	626.6185302734375	676.4893798828125	-605.8142700195312	43.58594131469727	717.3814086914062	-551.330078125	255.4525146484375	727.6881103515625	-581.0504150390625	47.26747894287109	922.1738891601562	-639.717529296875	54.37167358398438	882.10693359375	-549.5469970703125	42.23397064208984	814.4051513671875	-690.9423217773438	48.14907836914062	681.8895263671875	-730.4252319335938	514.0399780273438	839.3329467773438	-744.8375854492188	785.2012939453125	792.3817138671875	-900.3461303710938	230.7613830566406	469.7300720214844	-774.6107177734375	422.6357727050781	766.0191040039062	-826.3508911132812	83.72772979736328	597.6161499023438	-793.7741088867188	125.5379791259766	548.9479370117188	-894.7094116210938	142.1258850097656	552.4540405273438	-853.9560546875	265.7285461425781	428.0799865722656	
558	5.57	-726.576171875	1019.441833496094	602.6849975585938	-577.8754272460938	1011.382873535156	514.4671020507812	-643.9852294921875	1074.00390625	558.22314453125	-541.4813842773438	1274.965576171875	790.8706665039062	-641.069580078125	1207.965576171875	540.3385009765625	-611.7275390625	1474.618286132812	592.7786254882812	-549.4363403320312	1389.223022460938	760.1129760742188	-705.7205200195312	1337.5595703125	562.6082763671875	-528.3504028320312	1436.357299804688	533.4537353515625	-422.9281921386719	1439.079711914062	603.2854614257812	-358.3431701660156	1313.876098632812	558.7421264648438	-326.0010070800781	1100.635009765625	567.4578247070312	-429.31591796875	1082.239868164062	545.7389526367188	-336.1327514648438	868.188232421875	689.9242553710938	-308.0030517578125	852.6930541992188	612.2283935546875	-307.25537109375	992.8585815429688	587.2552490234375	-346.9759216308594	684.7868041992188	721.5986938476562	-297.3117980957031	773.5317993164062	648.93310546875	-323.354736328125	787.0657348632812	713.7901611328125	-752.4519653320312	1443.923828125	714.430908203125	-817.7373046875	1379.766235351562	723.8037109375	-889.2188720703125	1128.56201171875	698.3207397460938	-796.2828369140625	1095.974731445312	681.135986328125	-816.42236328125	868.7725830078125	814.7752685546875	-887.4925537109375	859.4296264648438	765.049560546875	-899.3444213867188	1045.951904296875	712.09130859375	-804.8843994140625	677.9541625976562	788.4854125976562	-813.4466552734375	761.6251220703125	824.2166748046875	-881.1884765625	766.7423095703125	786.9544067382812	-587.5574951171875	1651.599243164062	599.8101806640625	-543.6712646484375	1690.91943359375	807.6104736328125	-456.9490966796875	1688.347412109375	716.0172729492188	-674.9947509765625	1647.47265625	706.1871337890625	-451.8860778808594	946.9058837890625	570.103515625	-767.38427734375	949.2576904296875	696.9501342773438	-697.7146606445312	969.607666015625	799.5653686523438	-450.90576171875	959.9434814453125	693.85693359375	-509.2311401367188	503.6875305175781	759.0115966796875	-473.4851379394531	626.8246459960938	678.7825927734375	-605.604248046875	43.38245010375977	717.2362060546875	-550.3875122070312	255.4195709228516	727.7985229492188	-580.9765625	47.22163391113281	922.2371215820312	-639.537841796875	55.17438888549805	881.9115600585938	-549.4381713867188	42.07419967651367	814.3426513671875	-690.7120971679688	48.40427017211914	681.7628784179688	-718.909423828125	516.9035034179688	856.3627319335938	-737.3699340820312	787.290771484375	805.0248413085938	-895.7677001953125	226.3829650878906	495.9777221679688	-764.2017822265625	424.1864624023438	785.5214233398438	-818.1470947265625	84.22659301757812	627.7992553710938	-787.38134765625	124.0061645507812	576.6465454101562	-887.6902465820312	141.2579650878906	582.1835327148438	-850.2112426757812	259.5333251953125	451.896484375	
559	5.58	-724.2839965820312	1020.1201171875	612.21240234375	-577.3455810546875	1012.204467773438	521.3943481445312	-642.1651000976562	1074.687744140625	566.1970825195312	-536.278564453125	1275.8662109375	796.8035888671875	-639.3626098632812	1208.605102539062	547.7964477539062	-609.1809692382812	1475.300170898438	599.5164184570312	-544.6488647460938	1390.089111328125	766.0726928710938	-703.5475463867188	1338.241943359375	570.86376953125	-526.670166015625	1436.973876953125	538.999755859375	-420.28955078125	1439.807983398438	607.3477783203125	-356.2620239257812	1314.383422851562	562.4583740234375	-323.464599609375	1101.13916015625	572.4253540039062	-427.0348510742188	1082.505493164062	552.1148681640625	-332.3544311523438	870.1624755859375	697.862060546875	-305.0885009765625	853.6719360351562	620.0355224609375	-304.4656982421875	993.5103149414062	593.2583618164062	-342.7113342285156	687.199462890625	732.0558471679688	-293.9592895507812	774.9840087890625	657.6364135742188	-319.2392272949219	789.3566284179688	722.6124267578125	-748.1646118164062	1444.831420898438	723.1279907226562	-813.4271850585938	1381.023071289062	733.3368530273438	-886.6065673828125	1130.369018554688	707.9864501953125	-793.992431640625	1097.517822265625	689.618408203125	-813.0606079101562	870.139892578125	822.7985229492188	-884.6075439453125	860.97021484375	773.7765502929688	-896.8428955078125	1047.701049804688	721.6365356445312	-801.667236328125	679.2916259765625	795.3644409179688	-809.8453369140625	762.7728881835938	831.547607421875	-878.0614624023438	768.1987915039062	795.1172485351562	-584.1286010742188	1652.517578125	606.0841064453125	-538.55810546875	1691.755249023438	813.5865478515625	-452.6127014160156	1689.254638671875	721.2894897460938	-670.734619140625	1648.306518554688	713.1737670898438	-450.1202087402344	947.6983642578125	574.31884765625	-763.6143798828125	950.0867309570312	707.2854614257812	-691.8115234375	970.8455810546875	808.6157836914062	-446.821044921875	960.69384765625	698.2758178710938	-507.1947326660156	503.2006225585938	760.6470336914062	-471.8788146972656	627.0325317382812	681.1541137695312	-605.3973388671875	43.18190765380859	717.060546875	-549.5482788085938	255.3642730712891	727.9471435546875	-580.8862915039062	47.21152496337891	922.3104248046875	-639.3506469726562	55.97196960449219	881.718505859375	-549.3649291992188	41.93094253540039	814.2776489257812	-690.5379028320312	48.57096481323242	681.6744995117188	-707.110107421875	519.7848510742188	872.7180786132812	-729.8224487304688	789.3443603515625	817.4707641601562	-890.6239624023438	221.0967407226562	522.7107543945312	-753.4395751953125	425.6016540527344	804.6001586914062	-808.8534545898438	84.39206695556641	658.4427490234375	-780.3153076171875	121.8231582641602	604.81005859375	-879.8385620117188	139.7560882568359	612.2908935546875	-846.0191040039062	252.2635650634766	476.200439453125	
